<?xml version="1.0" encoding="UTF-8"?>
<svg xmlns="http://www.w3.org/2000/svg" width="2400" height="1000" viewBox="0 0 2400 1000">
<rect width="2400" height="1000" fill="#f8fafc"/>
<g font-family="Arial, Helvetica, sans-serif">
<text x="70" y="78" font-size="48" font-weight="900" fill="#111827" text-anchor="start">LSTR Experimental Summary</text>
<text x="70" y="120" font-size="25" font-weight="400" fill="#64748b" text-anchor="start">Current manuscript data: simulation averages and RoboTwin 2.0 protocols.</text>
<rect x="70" y="160" width="1330" height="730" rx="26" ry="26" fill="#ffffff" stroke="#d6dbe5" stroke-width="2"/>
<text x="104" y="218" font-size="34" font-weight="800" fill="#111827" text-anchor="start">Main simulation averages</text>
<text x="104" y="258" font-size="22" font-weight="400" fill="#64748b" text-anchor="start">Adroit, DexArt, RoboTwin 1.0, and overall average from Table 1.</text>
<line x1="150" y1="760.0" x2="1320" y2="760.0" stroke="#d9dee7" stroke-width="2"/>
<text x="132" y="767.0" font-size="21" font-weight="400" fill="#64748b" text-anchor="end">0</text>
<line x1="150" y1="669.0" x2="1320" y2="669.0" stroke="#d9dee7" stroke-width="2" stroke-dasharray="8 8"/>
<text x="132" y="676.0" font-size="21" font-weight="400" fill="#64748b" text-anchor="end">20</text>
<line x1="150" y1="578.0" x2="1320" y2="578.0" stroke="#d9dee7" stroke-width="2" stroke-dasharray="8 8"/>
<text x="132" y="585.0" font-size="21" font-weight="400" fill="#64748b" text-anchor="end">40</text>
<line x1="150" y1="487.0" x2="1320" y2="487.0" stroke="#d9dee7" stroke-width="2" stroke-dasharray="8 8"/>
<text x="132" y="494.0" font-size="21" font-weight="400" fill="#64748b" text-anchor="end">60</text>
<line x1="150" y1="396.0" x2="1320" y2="396.0" stroke="#d9dee7" stroke-width="2" stroke-dasharray="8 8"/>
<text x="132" y="403.0" font-size="21" font-weight="400" fill="#64748b" text-anchor="end">80</text>
<line x1="150" y1="305.0" x2="1320" y2="305.0" stroke="#d9dee7" stroke-width="2" stroke-dasharray="8 8"/>
<text x="132" y="312.0" font-size="21" font-weight="400" fill="#64748b" text-anchor="end">100</text>
<line x1="150" y1="305" x2="150" y2="760" stroke="#64748b" stroke-width="2.5"/>
<line x1="150" y1="760" x2="1320" y2="760" stroke="#64748b" stroke-width="2.5"/>
<text x="68" y="532.5" font-size="24" font-weight="700" fill="#111827" text-anchor="middle" transform="rotate(-90 68 532.5)">Success rate (%)</text>
<rect x="187.25" y="586.64" width="44" height="173.36" rx="5" ry="5" fill="#3b82f6"/>
<rect x="245.25" y="582.55" width="44" height="177.45" rx="5" ry="5" fill="#14b8a6"/>
<rect x="303.25" y="421.94" width="44" height="338.06" rx="5" ry="5" fill="#f59e0b"/>
<rect x="361.25" y="403.74" width="44" height="356.26" rx="5" ry="5" fill="#ef2f2f" stroke="#b91c1c" stroke-width="4"/>
<text x="383.25" y="390.74" font-size="24" font-weight="800" fill="#ef2f2f" text-anchor="middle">78.3</text>
<rect x="334.25" y="315.74" width="98" height="42" rx="10" ry="10" fill="#ef2f2f"/>
<text x="383.25" y="344.74" font-size="24" font-weight="800" fill="#ffffff" text-anchor="middle">+4.0</text>
<text x="296.25" y="798" font-size="30" font-weight="800" fill="#111827" text-anchor="middle">Adroit</text>
<rect x="479.75" y="516.12" width="44" height="243.88" rx="5" ry="5" fill="#3b82f6"/>
<rect x="537.75" y="517.49" width="44" height="242.51" rx="5" ry="5" fill="#14b8a6"/>
<rect x="595.75" y="503.84" width="44" height="256.16" rx="5" ry="5" fill="#f59e0b"/>
<rect x="653.75" y="465.16" width="44" height="294.84" rx="5" ry="5" fill="#ef2f2f" stroke="#b91c1c" stroke-width="4"/>
<text x="675.75" y="452.16" font-size="24" font-weight="800" fill="#ef2f2f" text-anchor="middle">64.8</text>
<rect x="626.75" y="377.16" width="98" height="42" rx="10" ry="10" fill="#ef2f2f"/>
<text x="675.75" y="406.16" font-size="24" font-weight="800" fill="#ffffff" text-anchor="middle">+8.5</text>
<text x="588.75" y="798" font-size="30" font-weight="800" fill="#111827" text-anchor="middle">DexArt</text>
<rect x="772.25" y="628.96" width="44" height="131.04" rx="5" ry="5" fill="#3b82f6"/>
<rect x="830.25" y="636.69" width="44" height="123.31" rx="5" ry="5" fill="#14b8a6"/>
<rect x="888.25" y="550.25" width="44" height="209.75" rx="5" ry="5" fill="#f59e0b"/>
<rect x="946.25" y="487.91" width="44" height="272.09" rx="5" ry="5" fill="#ef2f2f" stroke="#b91c1c" stroke-width="4"/>
<text x="968.25" y="474.91" font-size="24" font-weight="800" fill="#ef2f2f" text-anchor="middle">59.8</text>
<rect x="911.75" y="399.91" width="113" height="42" rx="10" ry="10" fill="#ef2f2f"/>
<text x="968.25" y="428.91" font-size="24" font-weight="800" fill="#ffffff" text-anchor="middle">+13.7</text>
<text x="881.25" y="798" font-size="27" font-weight="800" fill="#111827" text-anchor="middle">RoboTwin 1.0</text>
<rect x="1064.75" y="580.73" width="44" height="179.27" rx="5" ry="5" fill="#3b82f6"/>
<rect x="1122.75" y="583.46" width="44" height="176.54" rx="5" ry="5" fill="#14b8a6"/>
<rect x="1180.75" y="502.93" width="44" height="257.07" rx="5" ry="5" fill="#f59e0b"/>
<rect x="1238.75" y="462.88" width="44" height="297.12" rx="5" ry="5" fill="#ef2f2f" stroke="#b91c1c" stroke-width="4"/>
<text x="1260.75" y="449.88" font-size="24" font-weight="800" fill="#ef2f2f" text-anchor="middle">65.3</text>
<rect x="1211.75" y="374.88" width="98" height="42" rx="10" ry="10" fill="#ef2f2f"/>
<text x="1260.75" y="403.88" font-size="24" font-weight="800" fill="#ffffff" text-anchor="middle">+8.8</text>
<text x="1173.75" y="798" font-size="30" font-weight="800" fill="#111827" text-anchor="middle">Overall</text>
<rect x="178" y="813" width="34" height="20" rx="3" ry="3" fill="#3b82f6"/>
<text x="224" y="831" font-size="21" font-weight="400" fill="#111827" text-anchor="start">DP (NFE=10)</text>
<rect x="570" y="813" width="34" height="20" rx="3" ry="3" fill="#14b8a6"/>
<text x="616" y="831" font-size="21" font-weight="400" fill="#111827" text-anchor="start">Flow Matching (NFE=10)</text>
<rect x="178" y="853" width="34" height="20" rx="3" ry="3" fill="#f59e0b"/>
<text x="224" y="871" font-size="21" font-weight="400" fill="#111827" text-anchor="start">ManiFlow (NFE=10)</text>
<rect x="570" y="853" width="34" height="20" rx="3" ry="3" fill="#ef2f2f"/>
<text x="616" y="871" font-size="21" font-weight="400" fill="#111827" text-anchor="start">LSTR (NFE=1)</text>
<rect x="1450" y="160" width="880" height="730" rx="26" ry="26" fill="#ffffff" stroke="#d6dbe5" stroke-width="2"/>
<text x="1484" y="218" font-size="34" font-weight="800" fill="#111827" text-anchor="start">RoboTwin 2.0 averages</text>
<text x="1484" y="258" font-size="22" font-weight="400" fill="#64748b" text-anchor="start">Clean and randomized protocols are shown separately.</text>
<line x1="1525" y1="760.0" x2="2260" y2="760.0" stroke="#d9dee7" stroke-width="2"/>
<text x="1507" y="767.0" font-size="20" font-weight="400" fill="#64748b" text-anchor="end">0</text>
<line x1="1525" y1="669.0" x2="2260" y2="669.0" stroke="#d9dee7" stroke-width="2" stroke-dasharray="8 8"/>
<text x="1507" y="676.0" font-size="20" font-weight="400" fill="#64748b" text-anchor="end">20</text>
<line x1="1525" y1="578.0" x2="2260" y2="578.0" stroke="#d9dee7" stroke-width="2" stroke-dasharray="8 8"/>
<text x="1507" y="585.0" font-size="20" font-weight="400" fill="#64748b" text-anchor="end">40</text>
<line x1="1525" y1="487.0" x2="2260" y2="487.0" stroke="#d9dee7" stroke-width="2" stroke-dasharray="8 8"/>
<text x="1507" y="494.0" font-size="20" font-weight="400" fill="#64748b" text-anchor="end">60</text>
<line x1="1525" y1="396.0" x2="2260" y2="396.0" stroke="#d9dee7" stroke-width="2" stroke-dasharray="8 8"/>
<text x="1507" y="403.0" font-size="20" font-weight="400" fill="#64748b" text-anchor="end">80</text>
<line x1="1525" y1="305.0" x2="2260" y2="305.0" stroke="#d9dee7" stroke-width="2" stroke-dasharray="8 8"/>
<text x="1507" y="312.0" font-size="20" font-weight="400" fill="#64748b" text-anchor="end">100</text>
<line x1="1525" y1="305" x2="1525" y2="760" stroke="#64748b" stroke-width="2.5"/>
<line x1="1525" y1="760" x2="2260" y2="760" stroke="#64748b" stroke-width="2.5"/>
<text x="1750" y="810" font-size="28" font-weight="800" fill="#111827" text-anchor="middle">demo_clean</text>
<text x="2125" y="810" font-size="28" font-weight="800" fill="#111827" text-anchor="middle">demo_randomized</text>
<rect x="1547" y="581.19" width="42" height="178.81" rx="5" ry="5" fill="#3b82f6"/>
<text x="1568.0" y="856" font-size="17" font-weight="700" fill="#111827" text-anchor="middle" transform="rotate(-28 1568.0 856)">DP</text>
<rect x="1603" y="572.09" width="42" height="187.91" rx="5" ry="5" fill="#8b5cf6"/>
<text x="1624.0" y="856" font-size="17" font-weight="700" fill="#111827" text-anchor="middle" transform="rotate(-28 1624.0 856)">ACT</text>
<rect x="1659" y="536.6" width="42" height="223.4" rx="5" ry="5" fill="#6366f1"/>
<text x="1680.0" y="856" font-size="17" font-weight="700" fill="#111827" text-anchor="middle" transform="rotate(-28 1680.0 856)">RDT</text>
<rect x="1715" y="514.75" width="42" height="245.25" rx="5" ry="5" fill="#ec4899"/>
<text x="1736.0" y="856" font-size="17" font-weight="700" fill="#111827" text-anchor="middle" transform="rotate(-28 1736.0 856)">pi0</text>
<rect x="1771" y="483.81" width="42" height="276.19" rx="5" ry="5" fill="#22c55e"/>
<text x="1792.0" y="856" font-size="17" font-weight="700" fill="#111827" text-anchor="middle" transform="rotate(-28 1792.0 856)">UP-VLA</text>
<rect x="1827" y="428.3" width="42" height="331.7" rx="5" ry="5" fill="#ef2f2f" stroke="#b91c1c" stroke-width="4"/>
<text x="1848.0" y="856" font-size="17" font-weight="700" fill="#111827" text-anchor="middle" transform="rotate(-28 1848.0 856)">LSTR</text>
<text x="1848.0" y="415.3" font-size="23" font-weight="800" fill="#ef2f2f" text-anchor="middle">72.9</text>
<rect x="1791.5" y="340.3" width="113" height="42" rx="10" ry="10" fill="#ef2f2f"/>
<text x="1848.0" y="369.3" font-size="24" font-weight="800" fill="#ffffff" text-anchor="middle">+12.2</text>
<rect x="2045" y="630.33" width="42" height="129.67" rx="5" ry="5" fill="#f59e0b"/>
<text x="2066.0" y="856" font-size="17" font-weight="700" fill="#111827" text-anchor="middle" transform="rotate(-28 2066.0 856)">ManiFlow</text>
<rect x="2115" y="588.01" width="42" height="171.99" rx="5" ry="5" fill="#ef2f2f" stroke="#b91c1c" stroke-width="4"/>
<text x="2136.0" y="856" font-size="17" font-weight="700" fill="#111827" text-anchor="middle" transform="rotate(-28 2136.0 856)">LSTR</text>
<text x="2136.0" y="575.01" font-size="23" font-weight="800" fill="#ef2f2f" text-anchor="middle">37.8</text>
<rect x="2087.0" y="500.01" width="98" height="42" rx="10" ry="10" fill="#ef2f2f"/>
<text x="2136.0" y="529.01" font-size="24" font-weight="800" fill="#ffffff" text-anchor="middle">+9.3</text>
<text x="70" y="955" font-size="25" font-weight="400" fill="#64748b" text-anchor="start">All training-only LSTR components are removed at inference; LSTR uses 1 NFE in reported comparisons.</text>
</g></svg>